<mxfile host="app.diagrams.net" modified="2021-08-03T02:12:36.791Z" agent="5.0 (Macintosh; Intel Mac OS X 10_15_7) AppleWebKit/537.36 (KHTML, like Gecko) Chrome/92.0.4515.107 Safari/537.36" etag="8mEuXweXhxjN-hGTuJBh" version="14.9.3" type="github">
  <diagram id="C5RBs43oDa-KdzZeNtuy" name="Page-1">
    <mxGraphModel dx="946" dy="1758" grid="1" gridSize="10" guides="1" tooltips="1" connect="1" arrows="1" fold="1" page="1" pageScale="1" pageWidth="827" pageHeight="1169" math="0" shadow="0">
      <root>
        <mxCell id="WIyWlLk6GJQsqaUBKTNV-0" />
        <mxCell id="WIyWlLk6GJQsqaUBKTNV-1" parent="WIyWlLk6GJQsqaUBKTNV-0" />
        <mxCell id="xybnSQBX6YIYGxx-96SF-1" value="开放平台" style="rounded=1;whiteSpace=wrap;html=1;" vertex="1" parent="WIyWlLk6GJQsqaUBKTNV-1">
          <mxGeometry x="160" y="210" width="466" height="110" as="geometry" />
        </mxCell>
        <mxCell id="xybnSQBX6YIYGxx-96SF-2" value="程序员写的代码" style="rounded=0;whiteSpace=wrap;html=1;" vertex="1" parent="WIyWlLk6GJQsqaUBKTNV-1">
          <mxGeometry x="190" y="-40" width="120" height="60" as="geometry" />
        </mxCell>
        <mxCell id="xybnSQBX6YIYGxx-96SF-3" value="API文档信息" style="ellipse;whiteSpace=wrap;html=1;" vertex="1" parent="WIyWlLk6GJQsqaUBKTNV-1">
          <mxGeometry x="190" y="230" width="120" height="80" as="geometry" />
        </mxCell>
        <mxCell id="xybnSQBX6YIYGxx-96SF-4" value="应用信息" style="ellipse;whiteSpace=wrap;html=1;" vertex="1" parent="WIyWlLk6GJQsqaUBKTNV-1">
          <mxGeometry x="460" y="225" width="120" height="80" as="geometry" />
        </mxCell>
        <mxCell id="xybnSQBX6YIYGxx-96SF-8" style="rounded=0;orthogonalLoop=1;jettySize=auto;html=1;" edge="1" parent="WIyWlLk6GJQsqaUBKTNV-1" source="xybnSQBX6YIYGxx-96SF-7" target="xybnSQBX6YIYGxx-96SF-2">
          <mxGeometry relative="1" as="geometry" />
        </mxCell>
        <mxCell id="xybnSQBX6YIYGxx-96SF-9" value="读取API信息" style="edgeLabel;html=1;align=center;verticalAlign=middle;resizable=0;points=[];" vertex="1" connectable="0" parent="xybnSQBX6YIYGxx-96SF-8">
          <mxGeometry x="0.2288" y="-2" relative="1" as="geometry">
            <mxPoint as="offset" />
          </mxGeometry>
        </mxCell>
        <mxCell id="xybnSQBX6YIYGxx-96SF-7" value="IDE插件" style="shape=parallelogram;perimeter=parallelogramPerimeter;whiteSpace=wrap;html=1;fixedSize=1;" vertex="1" parent="WIyWlLk6GJQsqaUBKTNV-1">
          <mxGeometry x="100" y="90" width="120" height="60" as="geometry" />
        </mxCell>
      </root>
    </mxGraphModel>
  </diagram>
</mxfile>
